<svg width="90" height="23" viewBox="0 0 90 23" fill="none" xmlns="http://www.w3.org/2000/svg">
<path fill-rule="evenodd" clip-rule="evenodd" d="M89.8605 17.7427C86.0995 24.2608 80.1433 22.3694 78.3545 20.8886C77.5932 21.4166 76.2581 22.5739 74.4781 22.4404C70.6871 22.1559 69.3294 16.618 69.3294 16.618C69.3566 16.6401 68.2003 17.0259 67.5752 17.019C67.5671 18.643 66.1938 22.5226 62.4875 22.473C58.3284 22.4175 57.4829 16.0835 57.4829 16.0835C57.4829 16.0835 57.069 16.6711 55.4953 17.2561C55.5745 16.0085 55.5166 22.2831 50.5318 22.3753C46.591 22.4482 45.5272 15.9859 45.5272 15.9859C45.5272 15.9859 44.8435 16.7119 43.5187 16.9637C43.6028 15.6956 43.466 22.3965 38.4805 22.3753C35.1115 22.3609 33.9602 18.3943 34.0497 17.8439C34.164 17.1422 32.9111 22.474 29.6386 22.3909C28.288 22.3503 27.2812 21.3508 26.6495 20.0181C25.8037 21.0075 24.5758 22.3909 23.1983 22.3909C20.7258 22.3909 19.6356 20.2768 19.8202 14.2386C19.8359 13.5226 19.7854 13.2408 19.089 13.1337C18.671 13.0625 18.2428 12.9274 17.79 12.8562C17.6448 13.3515 16.4134 22.2297 12.1793 22.3982C10.7588 22.4548 9.98203 21.197 9.3442 20.2633C8.36641 21.5856 7.07567 22.4404 5.2369 22.4404C2.12217 22.4404 0 19.8664 0 16.6913C0 13.5161 2.12217 10.9424 5.2369 10.9424C5.78761 10.9424 5.94221 11.0231 6.44533 11.1732C5.41066 1.54347 7.85413 0.0384785 9.99169 0.0384785C12.0438 0.0384785 15.5497 4.90728 10.6166 17.2571C11.7118 20.9407 14.0729 20.7324 15.2076 13.1495C15.4384 11.6081 14.8209 9.52804 15.7814 9.23773C17.537 8.70718 17.7233 10.299 18.5464 10.5642C19.4168 10.8445 19.9248 10.8172 20.7604 10.9955C22.1882 11.2805 22.7454 12.0646 22.5713 13.8108C22.3625 16.0206 21.9971 19.2365 23.1113 19.6284C23.9148 19.9132 25.3818 18.2099 25.6392 17.2779C25.8966 16.3459 25.9503 16.0269 25.9732 15.3434C26.008 13.8823 26.0516 12.8114 26.2954 11.7064C26.3997 11.2789 26.5186 10.9958 26.9918 10.9765C27.3812 10.9663 28.0932 10.8464 28.4067 11.0958C28.8245 11.4167 28.7723 11.7424 28.7243 12.5993C28.2384 24.8176 31.9781 18.7181 33.0932 13.8342C32.6963 8.31175 32.9688 0.139605 36.3543 0.00254346C38.1149 -0.0687364 38.8932 1.37312 38.9789 2.44932C39.221 5.48892 37.8645 10.5239 36.0805 13.91C35.061 20.819 40.5385 22.1852 41.4144 16.6704C39.9813 15.9739 38.4325 13.1546 39.6928 11.7806C40.4001 11.0095 43.3439 12.1173 43.3921 14.5332C44.8361 14.1384 45.0289 13.305 45.0489 13.4431C44.6519 7.92063 45.0201 0.139676 48.4058 0.00261402C50.1662 -0.0686658 50.9445 1.37319 51.0301 2.44939C51.2722 5.48899 49.9158 10.524 48.132 13.9101C47.1122 20.8191 52.59 22.1852 53.4657 16.6705C52.4047 16.4612 50.1648 13.4625 51.4571 11.7807C52.1478 10.882 55.0807 12.7509 55.4092 14.6132C56.7965 14.2119 56.9848 13.405 57.0047 13.5409C56.6077 8.01849 56.9758 0.237548 60.3614 0.100485C62.1219 0.0292056 62.9002 1.47106 62.9858 2.54727C63.228 5.58686 61.8714 10.622 60.0875 14.0081C59.0679 20.9172 64.5455 22.2831 65.4215 16.7682C63.9634 16.52 61.891 13.3538 63.5589 11.734C64.2253 11.0869 66.7715 12.7668 67.3674 14.6834C68.1956 14.6508 68.7111 14.359 68.8216 14.3295C67.4995 7.84639 68.4837 0.0676419 72.1258 0.00270907C74.0942 -0.0323528 76.0188 1.09057 75.174 7.25836C74.3678 13.1432 71.4694 15.6128 71.476 15.6505C71.6448 16.3556 73.1319 22.2557 76.8772 19.1426C76.6833 18.6938 76.4892 18.2354 76.3808 17.6799C75.76 14.4449 76.9793 10.7907 80.2933 10.2001C82.192 9.86183 83.9806 10.8067 84.2634 12.9371C84.7287 16.4231 81.6494 18.9477 80.4785 19.4953C79.954 19.1907 85.2326 22.6514 88.3653 15.7162C88.5469 15.3202 88.766 15.3537 89.0497 15.5579C89.25 15.702 90.3914 16.8072 89.8605 17.7427ZM7.5026 15.8348C7.34319 15.3476 7.01607 14.2743 6.90041 13.8092C6.26335 13.2429 5.80864 13.1509 4.99092 13.1509C3.17368 13.1509 2.1041 14.8683 2.1041 16.7203C2.1041 18.5723 3.26933 20.29 5.08657 20.29C6.66143 20.29 7.86002 19.1954 8.2257 17.646C7.96974 17.0419 7.71585 16.4868 7.5026 15.8348ZM9.94716 2.58754C8.67023 2.58754 8.23708 5.70125 8.32115 8.35755C8.39549 10.706 9.03746 12.7736 9.37049 13.6999C9.45506 13.8161 9.43931 13.7406 9.51478 13.8637C11.7319 8.89801 10.8123 2.58754 9.94716 2.58754ZM36.5366 2.68534C34.8863 2.49187 34.8968 9.51945 35.1018 11.0958C35.9588 9.69421 37.4479 3.06274 36.5366 2.68534ZM48.5878 2.68534C46.9375 2.49187 46.9481 9.51945 47.1531 11.0958C48.0101 9.69421 49.4992 3.06274 48.5878 2.68534ZM60.5436 2.78311C58.8932 2.58964 58.9038 9.61726 59.1088 11.1937C59.9658 9.79196 61.4548 3.16049 60.5436 2.78311ZM72.3079 2.27396C69.7366 2.80178 70.3354 11.5654 70.7258 13.1023C73.7547 8.84997 73.817 2.11423 72.3079 2.27396ZM81.9443 13.2255C81.8138 12.6668 81.16 12.3681 80.7088 12.4417C79.4178 12.6219 78.1657 14.2656 78.6503 16.768C78.7582 17.3253 79.0282 17.8382 79.0238 17.8213C81.9132 15.8398 82.1588 14.2783 81.9443 13.2255ZM27.498 9.04212C27.129 9.0422 26.7683 8.93041 26.4614 8.7209C26.1546 8.51139 25.9154 8.21356 25.7741 7.86509C25.6328 7.51663 25.5959 7.13316 25.6678 6.76321C25.7398 6.39325 25.9175 6.05342 26.1784 5.78668C26.4393 5.51994 26.7717 5.33829 27.1336 5.26469C27.4955 5.19109 27.8707 5.22885 28.2115 5.37319C28.5525 5.51755 28.8439 5.762 29.0488 6.07563C29.2538 6.38927 29.3633 6.758 29.3633 7.13519C29.3633 7.38561 29.315 7.63357 29.2212 7.86491C29.1276 8.09626 28.9901 8.30648 28.817 8.48355C28.6437 8.66063 28.4381 8.80109 28.2118 8.89694C27.9855 8.99278 27.743 9.04211 27.498 9.04212Z" fill="black"/>
</svg>
