<svg width="13" height="13" viewBox="0 0 13 13" fill="none" xmlns="http://www.w3.org/2000/svg">
<g clip-path="url(#clip0_2_30)">
<path d="M12.9751 2.47487C12.4957 2.68558 11.9838 2.82912 11.4449 2.89467C11.9941 2.56371 12.4166 2.04208 12.6165 1.41971C12.1014 1.72033 11.5305 1.93917 10.9227 2.06104C10.4374 1.54158 9.74567 1.21658 8.97758 1.21658C7.50587 1.21658 6.31258 2.40987 6.31258 3.87996C6.31258 4.09121 6.33696 4.29433 6.38138 4.48879C4.16596 4.38425 2.20242 3.32042 0.888333 1.71221C0.657042 2.10329 0.527583 2.55775 0.527583 3.05283C0.527583 3.97908 0.998833 4.79321 1.71275 5.2715C1.27563 5.25742 0.8645 5.13717 0.505917 4.93783V4.97087C0.505917 6.26275 1.42296 7.34012 2.64333 7.5855C2.41963 7.64562 2.18346 7.67813 1.94133 7.67813C1.77125 7.67813 1.60821 7.66187 1.44517 7.63154C1.78696 8.68942 2.76954 9.46075 3.939 9.48242C3.029 10.1969 1.87579 10.6226 0.63375 10.6226C0.4225 10.6226 0.211792 10.6102 0 10.5863C1.18571 11.3414 2.58267 11.7829 4.09338 11.7829C8.99763 11.7829 11.6762 7.72254 11.6762 4.20712C11.6762 4.09392 11.6762 3.97962 11.668 3.86587C12.1886 3.49267 12.643 3.02088 13.0005 2.48571L12.9751 2.47487Z" fill="black"/>
</g>
<defs>
<clipPath id="clip0_2_30">
<rect width="13" height="13" fill="white"/>
</clipPath>
</defs>
</svg>
